<svg width="243" height="70" viewBox="0 0 243 70" fill="none" xmlns="http://www.w3.org/2000/svg">
<g clip-path="url(#clip0)">
<path d="M85.1628 53.1438H81.3174V59.1483H85.1628C87.0537 59.1483 88.352 58.1887 88.352 56.1425C88.352 54.0964 87.0537 53.1438 85.1628 53.1438ZM85.2757 60.0655H81.3174V65.8371H80.2873V52.2195H85.2757C87.6252 52.2195 89.3892 53.6307 89.3892 56.1355C89.3892 58.6402 87.6323 60.0514 85.2757 60.0514V60.0655ZM95.5982 57.3702C94.0107 57.3702 93.1287 58.6896 93.1287 60.1925V65.8371H92.155V56.6223H93.1287V57.843C93.4311 57.413 93.8359 57.0653 94.3065 56.8312C94.7772 56.5971 95.2987 56.4841 95.824 56.5024C96.2353 56.4788 96.6468 56.5455 97.0295 56.6979C97.4122 56.8502 97.757 57.0845 98.0395 57.3843L97.3339 58.0899C97.1174 57.846 96.8475 57.6554 96.5452 57.533C96.2429 57.4106 95.9164 57.3597 95.5912 57.3843L95.5982 57.3702ZM105.173 58.1464C104.663 57.6439 103.976 57.3623 103.261 57.3623C102.545 57.3623 101.858 57.6439 101.349 58.1464C100.587 58.9084 100.523 60.1572 100.523 61.2297C100.523 62.3022 100.58 63.544 101.349 64.306C101.859 64.8068 102.546 65.0873 103.261 65.0873C103.976 65.0873 104.662 64.8068 105.173 64.306C105.935 63.544 105.991 62.2951 105.991 61.2297C105.991 60.1643 105.935 58.9154 105.173 58.1464ZM105.822 64.934C105.128 65.5843 104.212 65.9461 103.261 65.9461C102.309 65.9461 101.394 65.5843 100.7 64.934C99.7259 63.9603 99.5495 62.5421 99.5495 61.2227C99.5495 59.9032 99.7259 58.4921 100.7 57.5113C101.393 56.8595 102.309 56.4965 103.261 56.4965C104.213 56.4965 105.129 56.8595 105.822 57.5113C106.796 58.485 106.972 59.9032 106.972 61.2227C106.972 62.5421 106.803 63.9603 105.822 64.934Z" fill="black"/>
<path d="M111.918 65.8371L108.553 56.6223H109.618L112.391 64.687L115.164 56.6223H116.236L112.871 65.8371H111.918Z" fill="black"/>
<path d="M123.878 58.9437C123.671 58.4831 123.336 58.092 122.912 57.8177C122.488 57.5434 121.994 57.3974 121.489 57.3974C120.984 57.3974 120.49 57.5434 120.067 57.8177C119.643 58.092 119.307 58.4831 119.101 58.9437C118.891 59.4985 118.781 60.0862 118.776 60.6794H124.202C124.217 60.0844 124.107 59.493 123.878 58.9437ZM121.761 65.0963C122.24 65.1136 122.717 65.023 123.157 64.8313C123.597 64.6395 123.988 64.3515 124.301 63.9885L125.007 64.5671C124.593 65.0359 124.08 65.406 123.505 65.6503C122.93 65.8945 122.307 66.0066 121.683 65.9782C119.143 65.9782 117.767 64.3342 117.767 61.2579C117.767 58.1816 119.178 56.5306 121.457 56.5306C123.736 56.5306 125.148 58.1958 125.148 61.0251V61.4626H118.769C118.769 63.8121 119.799 65.0963 121.768 65.0963H121.761ZM134.292 60.1149C134.292 58.3369 133.41 57.3632 131.752 57.3632C130.094 57.3632 129.155 58.358 129.155 60.1149V65.8301H128.182V56.6223H129.155V57.716C129.808 57.0084 130.708 56.5798 131.669 56.5194C132.63 56.4589 133.577 56.7713 134.313 57.3914C134.641 57.7294 134.895 58.1313 135.06 58.572C135.225 59.0127 135.297 59.4827 135.273 59.9526V65.8442H134.292V60.129V60.1149ZM148.848 53.1438H145.002V59.1483H148.848C150.739 59.1483 152.037 58.1887 152.037 56.1425C152.037 54.0964 150.739 53.1438 148.848 53.1438ZM148.961 60.0655H145.002V65.8371H143.965V52.2195H148.961C151.31 52.2195 153.067 53.6307 153.067 56.1355C153.067 58.6403 151.31 60.0514 148.961 60.0514V60.0655ZM159.276 57.3702C157.689 57.3702 156.807 58.6896 156.807 60.1925V65.8371H155.833V56.6223H156.807V57.843C157.11 57.4135 157.514 57.0661 157.985 56.8321C158.456 56.5981 158.977 56.4848 159.502 56.5024C159.913 56.4788 160.325 56.5455 160.708 56.6979C161.09 56.8502 161.435 57.0846 161.718 57.3843L161.012 58.0899C160.795 57.846 160.526 57.6554 160.223 57.533C159.921 57.4106 159.594 57.3597 159.269 57.3843L159.276 57.3702ZM168.865 58.1464C168.355 57.6439 167.669 57.3623 166.953 57.3623C166.237 57.3623 165.55 57.6439 165.041 58.1464C164.279 58.9084 164.215 60.1572 164.215 61.2297C164.215 62.3022 164.272 63.544 165.041 64.306C165.55 64.8084 166.237 65.0901 166.953 65.0901C167.669 65.0901 168.355 64.8084 168.865 64.306C169.627 63.544 169.691 62.2951 169.691 61.2297C169.691 60.1643 169.634 58.9154 168.865 58.1464ZM169.521 64.934C168.827 65.5843 167.911 65.9461 166.96 65.9461C166.009 65.9461 165.093 65.5843 164.399 64.934C163.425 63.9603 163.249 62.5421 163.249 61.2227C163.249 59.9032 163.418 58.4921 164.399 57.5113C165.093 56.861 166.009 56.4992 166.96 56.4992C167.911 56.4992 168.827 56.861 169.521 57.5113C170.495 58.485 170.664 59.9032 170.664 61.2227C170.664 62.5421 170.495 63.9603 169.521 64.934ZM176.859 57.3702C174.601 57.3702 174.263 59.3176 174.263 61.2297C174.263 63.1418 174.608 65.0963 176.859 65.0963C179.11 65.0963 179.456 63.1489 179.456 61.2297C179.456 59.3105 179.11 57.3702 176.859 57.3702ZM179.449 64.6517C179.146 65.087 178.735 65.4356 178.256 65.6633C177.777 65.891 177.247 65.9898 176.718 65.95C175.889 65.9857 175.08 65.6971 174.46 65.1457C173.529 64.2072 173.275 62.6762 173.275 61.2227C173.275 59.7692 173.529 58.2451 174.46 57.3067C175.08 56.7552 175.889 56.4667 176.718 56.5024C177.247 56.4626 177.777 56.5614 178.256 56.7891C178.735 57.0168 179.146 57.3654 179.449 57.8006V52.2195H180.422V65.8301H179.449V64.6447V64.6517ZM189.99 64.7435C189.552 65.3286 188.937 65.7569 188.236 65.9651C187.535 66.1732 186.786 66.1501 186.1 65.8991C185.413 65.6481 184.826 65.1826 184.425 64.5715C184.024 63.9605 183.83 63.2365 183.873 62.5068V56.6153H184.853V62.3304C184.853 64.1084 185.728 65.0822 187.393 65.0822C189.059 65.0822 189.99 64.0873 189.99 62.3304V56.6153H190.964V65.8301H189.99V64.7435ZM198.069 65.95C195.543 65.95 194.019 64.1508 194.019 61.2227C194.019 58.2945 195.543 56.5024 198.069 56.5024C198.652 56.4713 199.235 56.5836 199.765 56.8296C200.295 57.0756 200.757 57.4478 201.11 57.9135L200.439 58.5203C200.169 58.1476 199.812 57.8467 199.399 57.6438C198.985 57.4409 198.529 57.3421 198.069 57.3561C197.591 57.3318 197.115 57.4314 196.687 57.6453C196.26 57.8592 195.895 58.18 195.627 58.5768C195.212 59.3943 194.995 60.2984 194.995 61.2156C194.995 62.1328 195.212 63.0369 195.627 63.8544C195.894 64.252 196.259 64.5739 196.687 64.789C197.115 65.0041 197.591 65.1051 198.069 65.0822C198.528 65.0914 198.983 64.9905 199.395 64.788C199.808 64.5854 200.166 64.2871 200.439 63.9179L201.11 64.5318C200.757 64.9975 200.295 65.3697 199.765 65.6157C199.235 65.8617 198.652 65.974 198.069 65.943V65.95ZM204.468 63.4241V57.3491H203.205V56.6435H204.468V53.7012H205.442V56.6435H207.559V57.3491H205.442V63.4452C205.442 64.4189 205.879 64.9763 206.853 64.9763H207.523V65.8371H206.684C205.23 65.8371 204.468 64.8211 204.468 63.4241ZM210.296 65.8371H211.27V56.6223H210.296V65.8371ZM210.183 53.4261H211.39V52.2266H210.183V53.4261Z" fill="black"/>
<path d="M216.971 65.8371L213.598 56.6223H214.671L217.451 64.687L220.217 56.6223H221.289L217.924 65.8371H216.971Z" fill="black"/>
<path d="M223.632 65.8371H224.605V56.6223H223.632V65.8371ZM223.519 53.4261H224.725V52.2266H223.519V53.4261ZM228.507 63.4241V57.3491H227.244V56.6435H228.507V53.7012H229.481V56.6435H231.598V57.3491H229.481V63.4452C229.481 64.4189 229.918 64.9763 230.892 64.9763H231.562V65.8371H230.723C229.269 65.8371 228.507 64.8211 228.507 63.4241ZM236.283 69.4073C235.8 69.8185 235.18 70.0304 234.547 70H234.088V69.1392H234.448C235.499 69.1392 235.803 68.7935 236.127 67.8762L236.875 65.8301L233.51 56.6153H234.575L237.348 64.68L240.128 56.6223H241.2L236.918 68.3419C236.803 68.7487 236.584 69.1185 236.283 69.4144" fill="black"/>
<path d="M13.8222 21.1743H6.76645V29.6412H13.8222C16.8914 29.6412 18.352 27.7008 18.352 25.4077C18.352 23.1146 16.8914 21.1743 13.8222 21.1743ZM13.3847 7.17569H6.7594V15.1205H13.3847C16.2564 15.1205 17.8651 13.5188 17.8651 11.1481C17.8651 8.77734 16.2564 7.17569 13.3847 7.17569ZM14.5066 35.6597H0V1.15715H13.921C20.6945 1.15715 24.6386 4.93902 24.6386 10.8517C24.6494 12.3186 24.2553 13.76 23.4997 15.0173C22.744 16.2747 21.6562 17.2991 20.3558 17.978C22.4725 18.9447 25.1255 21.1249 25.1255 25.7393C25.1255 32.1812 20.6945 35.6738 14.5419 35.6738L14.5066 35.6597ZM91.139 35.9561C85.8825 35.9561 81.8819 34.8412 78.4739 31.4051L82.8556 27.0446C85.0499 29.2249 88.0133 29.9516 91.2307 29.9516C95.2243 29.9516 97.3692 28.4487 97.3692 25.7182C97.4022 25.1851 97.3232 24.651 97.1373 24.1504C96.9514 23.6497 96.6627 23.1935 96.2897 22.8112C95.5841 22.1832 94.8291 21.8375 93.2204 21.6047L89.0293 21.0191C86.0589 20.5816 83.8645 19.6643 82.3123 18.1615C80.6542 16.5175 79.8286 14.2808 79.8286 11.3809C79.8286 5.2283 84.4078 0.910194 91.9081 0.910194C96.6848 0.910194 100.135 2.0744 103.113 4.93903L98.8227 9.17247C96.6354 7.05575 94.0036 6.79468 91.7105 6.79468C88.105 6.79468 86.3552 8.77735 86.3552 11.1551C86.3455 11.6152 86.4314 12.0722 86.6075 12.4973C86.7836 12.9224 87.0461 13.3063 87.3783 13.6246C88.2918 14.3867 89.4122 14.8585 90.5957 14.9793L94.688 15.565C97.8561 16.0024 99.8458 16.8703 101.306 18.232C103.155 19.9748 103.987 22.4655 103.987 25.5488C103.987 32.2306 98.3852 36.0125 91.1319 36.0125L91.139 35.9561ZM124.033 35.9561C118.769 35.9561 114.783 34.8412 111.368 31.4051L115.756 27.0446C117.944 29.2249 120.914 29.9516 124.132 29.9516C128.125 29.9516 130.263 28.4487 130.263 25.7182C130.298 25.1855 130.22 24.6515 130.036 24.1507C129.851 23.65 129.563 23.1936 129.191 22.8112C128.485 22.1832 127.73 21.8375 126.128 21.6047L121.937 21.0191C118.967 20.5816 116.78 19.6643 115.22 18.1615C113.562 16.5175 112.737 14.2808 112.737 11.3809C112.737 5.2283 117.316 0.910194 124.816 0.910194C129.586 0.910194 133.05 2.0744 136.021 4.93903L131.731 9.17247C129.536 7.05575 126.912 6.79468 124.618 6.79468C121.013 6.79468 119.263 8.77735 119.263 11.1551C119.253 11.6152 119.339 12.0724 119.515 12.4975C119.691 12.9227 119.954 13.3065 120.286 13.6246C121.2 14.3871 122.32 14.8589 123.504 14.9793L127.596 15.565C130.764 16.0024 132.761 16.8703 134.221 18.232C136.077 19.9748 136.895 22.4655 136.895 25.5488C136.895 32.2306 131.293 36.0125 124.04 36.0125L124.033 35.9561ZM158.281 11.3386L153.893 23.8837H162.515L158.281 11.3386ZM166.396 35.6597L164.349 29.5565H152.023L149.906 35.6597H142.851L155.459 1.1642H160.772L173.451 35.6597H166.396ZM194.971 7.17569H188.621V16.2917H194.971C197.942 16.2917 199.91 14.4008 199.91 11.7337C199.91 9.06663 197.963 7.17569 194.971 7.17569ZM200.249 35.6597L193.475 21.901H188.621V35.6597H181.855V1.15715H195.437C202.493 1.15715 206.684 5.96211 206.684 11.7408C206.737 13.7323 206.149 15.6882 205.005 17.3196C203.862 18.9509 202.224 20.1713 200.334 20.8003L208.095 35.6809H200.249V35.6597ZM234.66 9.30652C233.496 7.89537 231.929 7.1898 229.594 7.1898H224.478V29.6764H229.594C231.929 29.6764 233.489 28.9709 234.66 27.5597C235.923 26.0145 236.12 23.538 236.12 18.3097C236.12 13.0813 235.923 10.8941 234.66 9.3418V9.30652ZM239.387 32.407C237.101 34.686 233.834 35.702 230.215 35.702H217.712V1.19948H230.25C233.855 1.19948 237.115 2.22256 239.422 4.49451C243.317 8.36811 242.95 13.1166 242.95 18.3097C242.95 23.5027 243.338 28.5264 239.422 32.4211" fill="#007AC3"/>
<path d="M58.9578 8.29755L63.3394 3.40792C59.8245 0.92591 55.558 -0.261124 51.2663 0.0489175C46.9746 0.358959 42.9231 2.14691 39.8014 5.10836L44.6911 9.44058C46.6345 7.75035 49.068 6.72681 51.6353 6.51985C54.2026 6.31289 56.7687 6.93341 58.9578 8.2905" fill="#A1C8EA"/>
<path d="M62.4362 25.189L67.3259 29.5283C69.9312 26.1202 71.2598 21.9068 71.0806 17.6206C70.9015 13.3345 69.2259 9.24669 66.3451 6.06793L61.9635 10.9646C63.5679 12.9676 64.4814 15.4358 64.5679 18.0006C64.6544 20.5655 63.9091 23.0895 62.4433 25.196" fill="#46A8DE"/>
<path d="M44.6275 27.2916C42.5932 25.4903 41.2378 23.0461 40.7871 20.3666C40.3365 17.687 40.8178 14.9339 42.151 12.5663L37.212 8.18466C34.7283 11.8764 33.671 16.3449 34.2369 20.7582C34.8029 25.1714 36.9535 29.2286 40.2883 32.1742C43.6267 35.1212 47.9116 36.7726 52.3643 36.8282C56.817 36.8839 61.1419 35.3402 64.553 32.4776L59.6139 28.096C57.3975 29.6825 54.7085 30.4703 51.9863 30.3306C49.2642 30.1909 46.6699 29.132 44.6275 27.3269" fill="#007AC3"/>
</g>
<defs>
<clipPath id="clip0">
<rect width="242.908" height="70" fill="white"/>
</clipPath>
</defs>
</svg>
